<svg xmlns="http://www.w3.org/2000/svg" width="130" height="150" viewBox="0 0 130 150">
  <g id="Timer1" transform="translate(-767 -102)">
    <g id="Ellipse_2" data-name="Ellipse 2" transform="translate(767 122)" fill="#fff" stroke="#000" stroke-width="1">
      <circle cx="65" cy="65" r="65" stroke="none"/>
      <circle cx="65" cy="65" r="64.5" fill="none"/>
    </g>
    <g id="Ellipse_1" data-name="Ellipse 1" transform="translate(772 127)" fill="#fff" stroke="#000" stroke-width="1">
      <circle cx="60" cy="60" r="60" stroke="none"/>
      <circle cx="60" cy="60" r="59.5" fill="none"/>
    </g>
    <g id="Rectangle_1" data-name="Rectangle 1" transform="translate(771.503 138.958) rotate(-47)" fill="#fff" stroke="#000" stroke-width="1">
      <rect width="13" height="13" stroke="none"/>
      <rect x="0.5" y="0.5" width="12" height="12" fill="none"/>
    </g>
    <g id="Rectangle_2" data-name="Rectangle 2" transform="matrix(0.695, 0.719, -0.719, 0.695, 882.016, 128.876)" fill="#fff" stroke="#000" stroke-width="1">
      <rect width="13" height="13" stroke="none"/>
      <rect x="0.5" y="0.5" width="12" height="12" fill="none"/>
    </g>
    <g id="Rectangle_3" data-name="Rectangle 3" transform="translate(825 110)" fill="#fff" stroke="#000" stroke-width="1">
      <rect width="15" height="14" stroke="none"/>
      <rect x="0.5" y="0.5" width="14" height="13" fill="none"/>
    </g>
    <g id="Rectangle_4" data-name="Rectangle 4" transform="translate(806 102)" fill="#fff" stroke="#000" stroke-width="1">
      <rect width="52" height="16" rx="7" stroke="none"/>
      <rect x="0.5" y="0.5" width="51" height="15" rx="6.5" fill="none"/>
    </g>
    <text id="SEC" transform="translate(821 234)" fill="#fff" font-size="15" font-family="SegoeUI, Segoe UI"><tspan x="0" y="0">SEC</tspan></text>
  </g>
</svg>
